<?xml version="1.0" encoding="utf-8"?>

<!DOCTYPE svg PUBLIC "-//W3C//DTD SVG 1.1//EN" "http://www.w3.org/Graphics/SVG/1.1/DTD/svg11.dtd">
<!-- Uploaded to: SVG Repo, www.svgrepo.com, Generator: SVG Repo Mixer Tools -->
<svg fill="#000000" version="1.1" id="Warstwa_1" xmlns="http://www.w3.org/2000/svg" xmlns:xlink="http://www.w3.org/1999/xlink" 
	 width="800px" height="800px" viewBox="0 0 160 160" enable-background="new 0 0 160 160" xml:space="preserve">
<path id="banana" d="M119.648,27.026l-9.854-9.854c-1.561-1.562-4.096-1.562-5.656,0c-1.563,1.563-1.563,4.095,0,5.657l8.828,8.828
	V35c0,7.424-1.43,14.637-4.249,21.437c-2.823,6.812-6.911,12.921-12.151,18.16c-5.236,5.24-11.35,9.333-18.165,12.158
	C71.607,89.572,64.396,91,56.967,91c-7.421,0-14.633-1.43-21.436-4.249c-1.566-0.649-3.366-0.241-4.501,1.015
	c-1.134,1.258-1.354,3.092-0.55,4.582l6.145,11.375c0.185,0.34,0.418,0.652,0.691,0.928c2.552,2.55,5.348,4.775,8.347,6.687
	l2.682,5.364c0.027,0.058,0.056,0.115,0.086,0.171l4.958,9.918c0.192,0.385,0.445,0.735,0.75,1.039
	C61.552,135.241,69.231,139,76.967,139c8.487,0,16.731-1.635,24.501-4.859c7.792-3.229,14.775-7.904,20.755-13.889
	c5.988-5.986,10.657-12.969,13.873-20.748c3.232-7.777,4.871-16.021,4.871-24.504c0-8.47-1.634-16.712-4.857-24.501
	C132.916,42.8,123.037,29.874,119.648,27.026z M42.249,97.301C47.042,98.432,51.964,99,56.967,99c8.486,0,16.729-1.634,24.499-4.855
	c7.791-3.231,14.775-7.905,20.759-13.892c2.268-2.267,4.344-4.679,6.228-7.222c-0.043,0.107-0.08,0.217-0.125,0.324
	c-3.065,7.417-7.517,14.069-13.228,19.776c-5.701,5.707-12.355,10.162-19.783,13.24c-3.988,1.654-8.11,2.861-12.328,3.63
	c-2.293-0.513-4.549-1.215-6.714-2.112c-4.813-1.994-9.149-4.852-12.895-8.496L42.249,97.301z M132.967,75
	c0,7.423-1.433,14.635-4.261,21.439c-2.813,6.809-6.897,12.916-12.142,18.154c-5.234,5.24-11.346,9.33-18.162,12.156
	c-6.795,2.82-14.006,4.25-21.436,4.25c-5.394,0-11.016-2.818-16.718-8.381l-1.952-3.904c1.588-0.145,3.164-0.348,4.73-0.6
	c0.011,0,0.022,0.003,0.033,0.003c0.48,0,0.946-0.091,1.382-0.251c4.768-0.871,9.429-2.234,13.939-4.105
	c8.401-3.482,15.93-8.521,22.375-14.975c6.458-6.453,11.491-13.98,14.959-22.369c3.484-8.384,5.251-17.272,5.251-26.418v-9.057
	c3.04,4.137,6.279,9.068,7.751,12.618C131.537,60.372,132.967,67.585,132.967,75z"/>
</svg>