<?xml version="1.0" encoding="UTF-8"?>
<!-- Uploaded to: SVG Repo, www.svgrepo.com, Generator: SVG Repo Mixer Tools -->
<svg width="800px" height="800px" viewBox="0 0 24 24" version="1.1" xmlns="http://www.w3.org/2000/svg" xmlns:xlink="http://www.w3.org/1999/xlink">
    <title>Beef</title>
    <g id="Beef" stroke="none" stroke-width="1" fill="none" fill-rule="evenodd" stroke-linecap="square">
        <path d="M7.80329994,4.19905716 L8.5,4 C10.7929412,3.34487395 13.2178782,3.30446955 15.531372,3.882843 L16.468628,4.117157 C18.6537402,4.66343506 20.3812285,6.33429985 21,8.5 L21.2602907,9.41101754 C21.7398074,11.0893258 21.6482501,12.8793747 21,14.5 L20.9284767,14.6788083 C20.3931982,16.0170045 19.131703,16.9154326 17.7048939,16.994343 L17.5,17 C15.8816722,17 14.3115297,17.5507763 13.047828,18.5617376 L12.5,19 C10.9609006,20.2312795 8.86894315,20.5152614 7.05730009,19.7388429 L6.5,19.5 C4.33230614,18.5709883 2.82021092,16.5616874 2.5276898,14.2215184 L2.36162029,12.8929623 C2.12732336,11.0185869 2.52813698,9.11977169 3.5,7.5 C4.4637986,5.893669 6.0020889,4.71368889 7.80329994,4.19905716 Z M15.531372,3.882843 L16.468628,4.117157 C18.6537402,4.66343506 20.3812285,6.33429985 21,8.5 L21.2602907,9.41101754 C21.322759,9.62965652 21.3755355,9.85019187 21.418652,10.072002 C21.3256159,10.5579422 21.1856329,11.0359176 21,11.5 L20.9284767,11.6788083 C20.3931982,13.0170045 19.131703,13.9154326 17.7048939,13.994343 L17.5,14 C15.8816722,14 14.3115297,14.5507763 13.047828,15.5617376 L12.5,16 C10.9609006,17.2312795 8.86894315,17.5152614 7.05730009,16.7388429 L6.5,16.5 C4.33230614,15.5709883 2.82021092,13.5616874 2.5276898,11.2215184 L2.42222105,10.3929563 C2.59949524,9.37749467 2.9623699,8.39605017 3.5,7.5 C4.4637986,5.893669 6.0020889,4.71368889 7.80329994,4.19905716 L8.5,4 C10.7929412,3.34487395 13.2178782,3.30446955 15.531372,3.882843 Z M21.45,10.3055556 C20.5019568,8.35170309 18.52108,7.11111111 16.3493697,7.11111111 L16.025,7.11111111 C13.4973358,7.11111111 11.0252415,6.3693349 8.91514249,4.97772838 L8.275,4.55555556 C8.09647079,4.43781586 7.91466175,4.3266896 7.72992901,4.22222033 L7.80329994,4.19905716 L7.80329994,4.19905716 L8.5,4 C9.64647059,3.67243698 10.8259401,3.49855436 12.0079788,3.47885919 L12.4513042,3.47870203 C13.485734,3.49520418 14.5192185,3.62980462 15.531372,3.882843 L16.468628,4.117157 C18.6537402,4.66343506 20.3812285,6.33429985 21,8.5 L21.2602907,9.41101754 C21.3502001,9.72570033 21.4200326,10.0443115 21.4698832,10.3649977 L21.4657873,10.3382682 C21.4605491,10.3273553 21.4552867,10.316451 21.45,10.3055556 Z M6.0355339,10.636039 C6.0355339,11.4644661 6.9309644,12.136039 8.0355339,12.136039 C9.1401034,12.136039 10.0355339,11.4644661 10.0355339,10.636039 C10.0355339,9.80761184 9.1401034,9.13603897 8.0355339,9.13603897 C6.9309644,9.13603897 6.0355339,9.80761184 6.0355339,10.636039 Z" id="Combined-Shape" stroke="#000000">
</path>
    </g>
</svg>