<?xml version="1.0" encoding="utf-8"?>

<!DOCTYPE svg PUBLIC "-//W3C//DTD SVG 1.1//EN" "http://www.w3.org/Graphics/SVG/1.1/DTD/svg11.dtd">
<!-- Uploaded to: SVG Repo, www.svgrepo.com, Generator: SVG Repo Mixer Tools -->
<svg fill="#000000" version="1.1" id="Warstwa_1" xmlns="http://www.w3.org/2000/svg" xmlns:xlink="http://www.w3.org/1999/xlink" 
	 width="800px" height="800px" viewBox="0 0 160 160" enable-background="new 0 0 160 160" xml:space="preserve">
<path id="bread" d="M21,135c0,2.209,1.791,4,4,4h50c2.209,0,4-1.791,4-4v-20.699c9.117,8.667,21.18,19.04,29.898,22.498
	C112.421,138.26,116.156,139,120,139c3.84,0,7.574-0.74,11.102-2.203c3.53-1.464,6.694-3.58,9.405-6.291
	c2.71-2.709,4.827-5.873,6.292-9.404c1.459-3.521,2.2-7.256,2.201-11.102c0-3.842-0.741-7.578-2.18-11.045
	c-8.488-21.403-59.01-77.144-80.719-85.753C62.579,11.741,58.844,11,55,11c-3.84,0-7.574,0.741-11.102,2.203
	c-3.531,1.465-6.695,3.582-9.405,6.292c-2.712,2.712-4.828,5.876-6.292,9.405C26.74,32.423,26,36.158,26,40s0.741,7.578,2.18,11.045
	c1.995,5.032,6.031,11.337,10.032,16.95c-7.407,0.719-13.882,2.116-18.577,4.072c-1.706,0.71-3.231,1.731-4.534,3.035
	c-1.31,1.31-2.331,2.837-3.037,4.541C11.358,81.348,11,83.148,11,85c0,1.854,0.357,3.656,1.063,5.359
	c0.707,1.705,1.729,3.232,3.038,4.541c1.308,1.308,2.835,2.328,4.539,3.035c0.446,0.186,0.9,0.348,1.359,0.483L21,135L21,135z
	 M35.593,48.038C34.536,45.49,34,42.785,34,40s0.535-5.489,1.591-8.037c1.06-2.554,2.594-4.846,4.561-6.813
	c1.963-1.964,4.255-3.498,6.811-4.558C49.513,19.536,52.217,19,55,19c2.786,0,5.49,0.536,8.095,1.615
	c4.668,1.852,11.05,6.389,18.157,12.477l-9.08,9.08c-1.563,1.563-1.563,4.095,0,5.657C72.952,48.609,73.977,49,75,49
	s2.048-0.391,2.828-1.171l9.406-9.407c4.713,4.346,9.605,9.191,14.436,14.252l-9.498,9.498c-1.563,1.563-1.563,4.095,0,5.657
	C92.952,68.609,93.977,69,95,69s2.048-0.391,2.828-1.171l9.307-9.307c4.68,5.113,9.195,10.327,13.317,15.369l-8.28,8.281
	c-1.563,1.563-1.563,4.094,0,5.656C112.952,88.609,113.977,89,115,89s2.048-0.391,2.828-1.172l7.637-7.636
	c6.746,8.74,11.867,16.537,13.942,21.77c1.057,2.548,1.593,5.253,1.593,8.037c-0.001,2.788-0.536,5.493-1.591,8.038
	c-1.062,2.557-2.595,4.848-4.56,6.813c-1.966,1.965-4.258,3.498-6.813,4.559C125.486,130.465,122.783,131,120,131
	c-2.786,0-5.49-0.535-8.096-1.615c-7.014-2.781-18.961-12.32-32.904-26.256V98.42c0.46-0.137,0.913-0.299,1.36-0.484
	c1.703-0.705,3.23-1.728,4.537-3.033c1.311-1.31,2.332-2.838,3.039-4.543C88.643,88.656,89,86.854,89,85
	c0-1.852-0.357-3.654-1.063-5.359c-0.707-1.702-1.729-3.229-3.037-4.539c-1.303-1.303-2.828-2.324-4.534-3.035
	C73.306,69.126,62.238,67.44,50,67.44c-0.761,0-1.517,0.006-2.268,0.02C41.658,59.375,37.378,52.539,35.593,48.038z M20.757,89.241
	c-0.563-0.562-1.001-1.216-1.303-1.944C19.153,86.57,19,85.797,19,85c0-0.796,0.153-1.568,0.454-2.295
	c0.302-0.729,0.741-1.385,1.305-1.948c0.56-0.56,1.216-0.999,1.952-1.305c5.277-2.198,13.748-3.621,23.191-3.942
	c0.006,0,0.013,0,0.019,0c1.349-0.046,2.721-0.069,4.081-0.069c11.057,0,21.257,1.5,27.287,4.011
	c0.736,0.307,1.393,0.746,1.952,1.305c0.563,0.563,1.003,1.22,1.305,1.946C80.848,83.432,81,84.204,81,85
	c0,0.797-0.152,1.57-0.454,2.297c-0.302,0.729-0.74,1.383-1.304,1.945c-0.563,0.563-1.218,1.002-1.947,1.305
	C76.569,90.848,75.798,91,75,91c-2.209,0-4,1.791-4,4v9.781V131H29V95c0-2.209-1.791-4-4-4c-0.798,0-1.569-0.152-2.294-0.453
	C21.976,90.244,21.32,89.807,20.757,89.241z"/>
</svg>