<?xml version="1.0" encoding="UTF-8"?>
<!-- Uploaded to: SVG Repo, www.svgrepo.com, Generator: SVG Repo Mixer Tools -->
<svg width="800px" height="800px" viewBox="0 0 24 24" version="1.1" xmlns="http://www.w3.org/2000/svg" xmlns:xlink="http://www.w3.org/1999/xlink">
    <title>Chicken</title>
    <g id="Chicken" stroke="none" stroke-width="1" fill="none" fill-rule="evenodd" stroke-linecap="round">
        <path d="M15,21.5 C15,22.3284271 14.3284271,23 13.5,23 C12.8471533,23 12.2917181,22.5829319 12.0856015,22.000703 L11.9143985,22.000703 C11.7082819,22.5829319 11.1528467,23 10.5,23 C9.67157288,23 9,22.3284271 9,21.5 C9,20.6715729 9.67157288,20 10.5,20 C10.6755804,20 10.8441149,20.0301673 11.000703,20.0856015 L11,17 L13,17 L13.0002925,20.0852495 C13.1565993,20.0300396 13.3247916,20 13.5,20 C14.3284271,20 15,20.6715729 15,21.5 Z M12,2 C15.3137085,2 18,4.6862915 18,8 C18,9.24718781 17.2903814,10.9098371 15.8711442,12.9879478 C15.3041888,13.8180931 15.0006409,14.7998636 15.0001041,15.8051395 L15,16 C15,16.5522847 14.5522847,17 14,17 L10,17 C9.44771525,17 9,16.5522847 9,16 L9,15.8075812 C9.00003272,14.8012271 8.69638083,13.818286 8.12876101,12.9872889 C6.709587,10.9096137 6,9.24718405 6,8 C6,4.6862915 8.6862915,2 12,2 Z" id="Combined-Shape" stroke="#000000" transform="translate(12.000000, 12.500000) rotate(-315.000000) translate(-12.000000, -12.500000) ">
</path>
    </g>
</svg>