<svg fill="#000000" height="200px" width="200px" version="1.1" id="Capa_1" xmlns="http://www.w3.org/2000/svg" xmlns:xlink="http://www.w3.org/1999/xlink" viewBox="0 0 510.919 510.919" xml:space="preserve" stroke="#000000" stroke-width="6.641947"><g id="SVGRepo_bgCarrier" stroke-width="0"></g><g id="SVGRepo_tracerCarrier" stroke-linecap="round" stroke-linejoin="round"></g><g id="SVGRepo_iconCarrier"> <g> <path d="M327.528,438.483h-16.004c-4.142,0-7.5,3.358-7.5,7.5s3.358,7.5,7.5,7.5h16.004c4.142,0,7.5-3.358,7.5-7.5 S331.67,438.483,327.528,438.483z"></path> <path d="M506.52,219.108c-2.918-2.988-6.982-4.702-11.15-4.702h-6.206c-5.548-14.372-14.763-26.99-26.903-36.729 c-12.89-10.341-28.234-16.743-44.567-18.628c-19.564-25.534-50.02-40.675-82.163-40.675c-1.882,0-3.688,0.084-5.479,0.203 c-6.067-4.388-12.504-8.228-19.2-11.481c-1.377-11.658-11.315-20.732-23.337-20.732c-4.359,0-8.442,1.197-11.946,3.273 c-4.133-6.757-11.581-11.276-20.065-11.276s-15.932,4.519-20.065,11.276c-3.503-2.076-7.586-3.273-11.946-3.273 c-12.022,0-21.959,9.074-23.336,20.732c-6.697,3.254-13.134,7.094-19.201,11.482c-1.792-0.119-3.598-0.203-5.479-0.203 c-17.687,0-34.858,4.593-49.99,12.971L67.664,36.201c-0.049-0.082-0.101-0.162-0.153-0.241 c-7.148-10.812-21.761-13.792-32.571-6.644c-10.812,7.148-13.792,21.759-6.644,32.571c0.044,0.066,0.089,0.132,0.135,0.197 l66.87,94.455c-0.674,0.826-1.338,1.661-1.988,2.51c-16.333,1.886-31.678,8.288-44.567,18.628 c-12.14,9.739-21.355,22.357-26.903,36.729h-6.291c-4.212,0-8.162,1.663-11.121,4.683c-2.941,3.002-4.514,6.955-4.429,11.131 c2.192,106.873,46.41,183.467,127.959,221.85v1.915c0,17.374,14.135,31.508,31.508,31.508h192.065 c17.374,0,31.508-14.135,31.508-31.508v-2.286c40.324-19.147,72.016-49.108,94.24-89.115 c20.835-37.506,32.464-83.271,33.63-132.349C511.014,226.064,509.453,222.112,506.52,219.108z M287.514,101.363 c4.69,0,8.506,3.815,8.506,8.505s-3.816,8.505-8.506,8.505s-8.505-3.815-8.505-8.505S282.824,101.363,287.514,101.363z M255.503,93.361c4.69,0,8.505,3.815,8.505,8.505s-3.815,8.505-8.505,8.505s-8.505-3.815-8.505-8.505 S250.813,93.361,255.503,93.361z M223.493,101.363c4.69,0,8.505,3.815,8.505,8.505s-3.815,8.505-8.505,8.505 s-8.505-3.815-8.505-8.505S218.803,101.363,223.493,101.363z M43.213,41.829c3.878-2.565,9.108-1.526,11.718,2.303l57.982,95.409 c-2.444,1.857-4.811,3.824-7.091,5.9L40.754,53.529C38.239,49.626,39.329,44.397,43.213,41.829z M97.919,173.674 c2.217-0.167,4.245-1.31,5.537-3.119c16.634-23.282,43.558-37.182,72.02-37.182c2.318,0,4.685,0.173,7.106,0.366 c1.837,0.146,3.658-0.388,5.123-1.498c4.992-3.781,10.285-7.132,15.795-10.03c4.147,6.693,11.556,11.162,19.992,11.162 c8.484,0,15.932-4.519,20.065-11.276c3.503,2.076,7.586,3.273,11.946,3.273s8.442-1.197,11.946-3.273 c4.133,6.757,11.581,11.276,20.065,11.276c8.436,0,15.845-4.469,19.993-11.162c5.51,2.897,10.803,6.249,15.794,10.03 c1.466,1.11,3.288,1.644,5.123,1.498c2.422-0.193,4.788-0.366,7.106-0.366c28.462,0,55.386,13.9,72.02,37.182 c1.292,1.809,3.32,2.951,5.537,3.119c26.166,1.978,48.657,17.603,59.759,40.732H38.16 C49.262,191.277,71.753,175.653,97.919,173.674z M375.863,438.499c-0.107-0.004-0.211-0.016-0.319-0.016h-16.005 c-4.142,0-7.5,3.358-7.5,7.5s3.358,7.5,7.5,7.5h8.505v0.502c0,9.103-7.406,16.508-16.508,16.508H159.471 c-9.103,0-16.508-7.406-16.508-16.508v-0.502h136.551c4.142,0,7.5-3.358,7.5-7.5s-3.358-7.5-7.5-7.5H135.462 c-0.334,0-0.66,0.029-0.983,0.072C66.541,406.603,26.354,345.786,17.027,261.418h350.518c4.142,0,7.5-3.358,7.5-7.5 c0-4.142-3.358-7.5-7.5-7.5H15.713c-0.355-5.414-0.598-10.912-0.713-16.504c-0.001-0.043-0.003-0.174,0.146-0.326 c0.081-0.083,0.217-0.181,0.406-0.181h11.571c0.008,0,0.017,0.002,0.026,0.002c0.008,0,0.016-0.002,0.024-0.002h456.659 c0.008,0,0.016,0.002,0.024,0.002c0.008,0,0.017-0.002,0.026-0.002h11.487c0.199,0,0.337,0.099,0.418,0.181 c0.135,0.138,0.132,0.25,0.131,0.292c-0.133,5.587-0.407,11.099-0.807,16.539h-47.544c-4.142,0-7.5,3.358-7.5,7.5 c0,4.142,3.358,7.5,7.5,7.5h46.09C483.597,344.051,441.743,407.488,375.863,438.499z"></path> <path d="M415.559,246.418h-16.008c-4.142,0-7.5,3.358-7.5,7.5c0,4.142,3.358,7.5,7.5,7.5h16.008c4.142,0,7.5-3.358,7.5-7.5 C423.059,249.776,419.701,246.418,415.559,246.418z"></path> </g> </g></svg>