<?xml version="1.0" encoding="utf-8"?><!-- Uploaded to: SVG Repo, www.svgrepo.com, Generator: SVG Repo Mixer Tools -->
<svg version="1.1" id="designs" xmlns="http://www.w3.org/2000/svg" xmlns:xlink="http://www.w3.org/1999/xlink" 
	 width="800px" height="800px" viewBox="0 0 32 32" xml:space="preserve">
<style type="text/css">
	.sketchy_een{fill:#111918;}
</style>
<path class="sketchy_een" d="M29.999,23.718c0.022-0.451-0.392-0.828-0.828-0.828c-0.067,0-0.125,0.023-0.186,0.038
	c-0.028-0.508-0.056-1.017-0.108-1.521c-0.073-0.692-0.097-1.392-0.187-2.082c-0.053-0.4-0.136-0.794-0.213-1.193
	c-0.063-0.327-0.122-0.656-0.207-0.98c-0.186-0.706-0.458-1.376-0.747-2.045c-0.166-0.4-0.328-0.801-0.507-1.194
	c-0.16-0.347-0.307-0.706-0.52-1.025c-0.24-0.359-0.499-0.704-0.785-1.029c-0.266-0.303-0.532-0.613-0.838-0.877
	c-0.292-0.252-0.582-0.509-0.877-0.757c-0.335-0.28-0.71-0.524-1.072-0.765c-0.72-0.473-1.51-0.816-2.305-1.141
	c-0.355-0.144-0.727-0.28-1.096-0.383c-0.389-0.108-0.788-0.179-1.183-0.256c0.042-0.092,0.086-0.187,0.12-0.279
	c0.077-0.221,0.108-0.443,0.13-0.676c0.035-0.394,0.004-0.789-0.104-1.173c-0.108-0.382-0.294-0.706-0.546-1.011
	c-0.179-0.219-0.404-0.404-0.643-0.556c-0.128-0.083-0.323-0.152-0.459-0.201c-0.087-0.03-0.173-0.059-0.262-0.083
	c-0.247-0.069-0.498-0.118-0.752-0.118c-0.064,0-0.129,0.003-0.194,0.01c-0.233,0.024-0.461,0.063-0.688,0.126
	c-0.611,0.169-1.086,0.627-1.384,1.175c-0.146,0.266-0.282,0.558-0.325,0.86c-0.028,0.197-0.039,0.373-0.016,0.568
	c0.018,0.152,0.039,0.303,0.061,0.455c0.041,0.274,0.158,0.534,0.272,0.782c0.002,0.004,0.004,0.007,0.006,0.011
	c-0.17,0.03-0.341,0.047-0.509,0.085c-0.384,0.085-0.759,0.233-1.122,0.382c-0.434,0.179-0.862,0.361-1.27,0.59
	C9.93,9.03,9.252,9.494,8.605,10.008c-0.641,0.51-1.272,1.027-1.835,1.622c-0.566,0.597-0.978,1.292-1.323,2.033
	c-0.353,0.749-0.641,1.528-0.917,2.308c-0.15,0.428-0.29,0.858-0.418,1.293c-0.132,0.444-0.217,0.905-0.304,1.358
	c-0.099,0.51-0.166,1.033-0.221,1.549c-0.047,0.432-0.035,0.869-0.089,1.299c0-0.003,0.001-0.005,0.001-0.008
	c-0.067,0.499-0.108,0.998-0.106,1.5c-0.133,0.008-0.253,0.05-0.364,0.114c-0.05-0.01-0.097-0.031-0.149-0.031
	c-0.457,0-0.846,0.383-0.844,0.842c0.002,0.41,0.012,0.82,0.016,1.23c0.004,0.337-0.01,0.672-0.01,1.007
	c0,0.312-0.006,0.623-0.022,0.934c-0.006,0.101-0.014,0.201-0.02,0.304c-0.01,0.146,0.016,0.284,0.037,0.432
	c0.039,0.144,0.112,0.268,0.217,0.373c0.158,0.16,0.375,0.249,0.599,0.249c0.039,0,0.074-0.017,0.112-0.022
	c0.792-0.018,1.586-0.044,2.376-0.09c0.741-0.045,1.484-0.051,2.226-0.055c0.767-0.008,1.536-0.014,2.303,0.01
	c0.38,0.012,0.761,0.035,1.143,0.043c0.373,0.008,0.743,0.006,1.116,0.004c1.512-0.008,3.024-0.02,4.538-0.035
	c0.781-0.01,1.559,0.014,2.34,0.016c0.773,0.002,1.544-0.004,2.316-0.006c0.674,0,1.346,0.008,2.021,0.022
	c0.662,0.014,1.325,0.041,1.989,0.053c0.647,0.01,1.297,0.022,1.944,0.008c0.619-0.014,1.238-0.069,1.857-0.103
	c0.219-0.012,0.413-0.109,0.55-0.258c0.161-0.149,0.268-0.357,0.268-0.589c-0.002-0.56-0.016-1.122-0.018-1.684
	C29.932,25.058,29.97,24.39,29.999,23.718z M15.315,7.16c-0.016-0.015-0.033-0.032-0.049-0.049
	c-0.102-0.151-0.191-0.312-0.272-0.476c-0.038-0.114-0.067-0.226-0.089-0.342c-0.006-0.071-0.009-0.142-0.007-0.213
	c0.017-0.072,0.038-0.14,0.064-0.213c0.048-0.108,0.099-0.214,0.16-0.315c0.058-0.066,0.119-0.13,0.183-0.191
	c0.006-0.003,0.012-0.007,0.018-0.01c0.129-0.041,0.26-0.075,0.393-0.101c0.068-0.003,0.135-0.003,0.203,0
	c0.151,0.034,0.3,0.073,0.448,0.12c0.044,0.022,0.088,0.045,0.131,0.071c0.077,0.07,0.151,0.144,0.22,0.223
	c0.04,0.061,0.077,0.123,0.11,0.187c0.047,0.134,0.084,0.27,0.111,0.409c0.01,0.166,0.008,0.334-0.006,0.5
	c-0.028,0.112-0.065,0.22-0.106,0.328c-0.048,0.103-0.102,0.2-0.17,0.295c-0.012,0.016-0.011,0.041-0.021,0.059
	c-0.336-0.031-0.672-0.062-1.01-0.064c-0.026,0-0.052,0-0.078,0c-0.029,0-0.058,0.005-0.088,0.005
	C15.421,7.304,15.38,7.226,15.315,7.16z M27.046,26.862c-0.761,0.008-1.524,0-2.285,0.024c-0.763,0.022-1.524,0.014-2.285,0.012
	c-0.296,0-0.591,0-0.887,0c-0.493,0-0.986,0-1.477-0.004c-3.05-0.02-6.103-0.006-9.153-0.071c-1.325-0.027-2.651-0.021-3.976-0.025
	c-0.633-0.004-1.266,0.014-1.898,0.018c-0.353,0.002-0.706-0.004-1.061-0.01c-0.111-0.002-0.222-0.002-0.333-0.003
	c0.002-0.225,0.004-0.45,0.006-0.675c0.001-0.499,0.01-0.998,0.017-1.497c0.78-0.008,1.562-0.016,2.341-0.058
	c0.781-0.043,1.561-0.118,2.344-0.167c0.779-0.049,1.561-0.069,2.342-0.071c0.808,0,1.617,0.03,2.425,0.04
	c0.56,0.006,1.12,0.002,1.682-0.002c0.765-0.008,1.532-0.014,2.299,0.006c0.629,0.018,1.256,0.053,1.887,0.067
	c0.674,0.016,1.35,0.016,2.027,0.014c0.371-0.002,0.682-0.31,0.682-0.682c0-0.371-0.312-0.686-0.682-0.684
	c-0.83,0.006-1.662,0.012-2.492-0.02c-0.804-0.028-1.611-0.083-2.417-0.089c-0.83-0.006-1.66-0.02-2.49-0.037
	c-0.818-0.016-1.636-0.061-2.454-0.081c-0.224-0.005-0.448-0.007-0.672-0.007c-1.019,0-2.037,0.046-3.056,0.088
	c-0.833,0.034-1.665,0.031-2.497,0.023c-0.022-0.484-0.018-0.965,0.046-1.447c0.076-0.566,0.065-1.135,0.129-1.701
	c0.117-0.817,0.266-1.631,0.52-2.419c0.258-0.804,0.539-1.602,0.861-2.38c0.158-0.362,0.321-0.724,0.504-1.073
	c0.164-0.318,0.364-0.615,0.573-0.902c0.304-0.362,0.633-0.699,0.978-1.023c0.32-0.3,0.668-0.57,1.016-0.84
	c0.206-0.153,0.415-0.301,0.623-0.452c0.254-0.185,0.526-0.345,0.793-0.512c0.254-0.162,0.509-0.319,0.773-0.463
	c0.212-0.116,0.439-0.208,0.662-0.301c0.312-0.126,0.624-0.238,0.95-0.332c0.269-0.078,0.55-0.12,0.829-0.158
	c0.938-0.091,1.873-0.061,2.807,0.045c0.529,0.08,1.052,0.188,1.575,0.301c0.496,0.106,0.969,0.286,1.436,0.478
	c0.511,0.222,1.03,0.443,1.513,0.719c0.472,0.271,0.924,0.573,1.362,0.894c0.151,0.129,0.299,0.261,0.446,0.396
	c0.17,0.154,0.359,0.286,0.52,0.446c0.303,0.299,0.58,0.622,0.847,0.951c0.211,0.288,0.405,0.588,0.574,0.902
	c0.165,0.301,0.301,0.622,0.437,0.939c0.143,0.351,0.29,0.701,0.431,1.054c0.158,0.398,0.288,0.802,0.402,1.216
	c0.11,0.392,0.172,0.791,0.233,1.193c0.055,0.366,0.136,0.727,0.192,1.093c0.067,0.627,0.111,1.255,0.181,1.88
	c0.063,0.545,0.104,1.091,0.121,1.638c-0.215,0.001-0.431,0.002-0.645,0.002c-0.633,0.004-1.266-0.02-1.898-0.022
	c-0.424,0-0.777,0.355-0.777,0.777c0,0.424,0.353,0.777,0.777,0.777c0.633,0,1.266-0.034,1.898-0.055
	c0.282-0.01,0.564-0.018,0.844-0.022c0.16-0.002,0.319-0.002,0.479,0c0.119,0.001,0.232-0.014,0.346-0.025
	c-0.005,0.758-0.004,1.516-0.004,2.274C27.905,26.835,27.476,26.857,27.046,26.862z M24.251,18.512
	c-0.097-0.288-0.19-0.578-0.3-0.863c-0.176-0.402-0.372-0.796-0.551-1.195c-0.104-0.233-0.213-0.471-0.353-0.686
	c-0.152-0.233-0.31-0.458-0.475-0.68c-0.124-0.168-0.136-0.438-0.083-0.629c0.057-0.205,0.193-0.383,0.375-0.489
	c0.125-0.073,0.268-0.111,0.411-0.111c0.073,0,0.147,0.01,0.218,0.03c0.219,0.059,0.361,0.195,0.489,0.375
	c0.215,0.304,0.416,0.619,0.58,0.954c0.132,0.276,0.254,0.558,0.386,0.834c0.164,0.347,0.343,0.682,0.483,1.039
	c0.114,0.286,0.197,0.583,0.28,0.881c0.087,0.308,0.189,0.609,0.276,0.915c0.085,0.3,0.124,0.613,0.172,0.918
	c0.051,0.323,0.099,0.647,0.148,0.97c0.034,0.213,0.067,0.428,0.126,0.633c0.136,0.473-0.241,0.954-0.725,0.954
	c-0.199,0-0.392-0.081-0.532-0.221c-0.156-0.154-0.195-0.323-0.221-0.532c-0.01-0.082-0.016-0.165-0.024-0.247
	c-0.045-0.294-0.1-0.585-0.151-0.878c-0.061-0.341-0.124-0.684-0.213-1.021C24.477,19.138,24.359,18.827,24.251,18.512z"/>
</svg>