<?xml version="1.0" encoding="utf-8"?>

<!DOCTYPE svg PUBLIC "-//W3C//DTD SVG 1.1//EN" "http://www.w3.org/Graphics/SVG/1.1/DTD/svg11.dtd">
<!-- Uploaded to: SVG Repo, www.svgrepo.com, Generator: SVG Repo Mixer Tools -->
<svg fill="#000000" version="1.1" id="Warstwa_1" xmlns="http://www.w3.org/2000/svg" xmlns:xlink="http://www.w3.org/1999/xlink" 
	 width="800px" height="800px" viewBox="0 0 160 160" enable-background="new 0 0 160 160" xml:space="preserve">
<path id="milk" d="M129,135V45c0-0.075-0.018-0.145-0.021-0.219c-0.008-0.141-0.02-0.28-0.043-0.421
	c-0.021-0.139-0.055-0.273-0.092-0.407c-0.02-0.072-0.023-0.146-0.049-0.218l-10-30c-0.016-0.047-0.043-0.088-0.061-0.134
	c-0.035-0.094-0.071-0.186-0.113-0.276c-0.033-0.073-0.068-0.144-0.107-0.215c-0.041-0.078-0.086-0.152-0.132-0.227
	c-0.047-0.074-0.095-0.146-0.146-0.217c-0.051-0.069-0.103-0.135-0.155-0.201c-0.056-0.068-0.113-0.133-0.173-0.197
	c-0.057-0.061-0.114-0.118-0.174-0.175c-0.066-0.063-0.135-0.122-0.207-0.18c-0.063-0.051-0.123-0.1-0.188-0.146
	c-0.071-0.053-0.146-0.102-0.223-0.15c-0.077-0.048-0.153-0.093-0.233-0.136c-0.064-0.035-0.131-0.067-0.197-0.099
	c-0.095-0.043-0.188-0.082-0.287-0.118c-0.047-0.018-0.086-0.044-0.133-0.06c-0.035-0.012-0.07-0.013-0.104-0.023
	c-0.07-0.021-0.142-0.039-0.214-0.056c-0.102-0.025-0.206-0.044-0.313-0.061c-0.083-0.014-0.164-0.03-0.246-0.038
	c-0.078-0.008-0.158-0.008-0.238-0.011C115.102,11.014,115.053,11,115,11H70c-0.08,0-0.154,0.019-0.232,0.023
	c-0.146,0.009-0.289,0.02-0.432,0.043c-0.127,0.021-0.248,0.052-0.37,0.085c-0.125,0.034-0.248,0.069-0.37,0.115
	c-0.123,0.046-0.239,0.101-0.356,0.158c-0.115,0.057-0.228,0.115-0.337,0.183c-0.107,0.067-0.209,0.14-0.309,0.216
	c-0.106,0.08-0.209,0.162-0.307,0.253c-0.094,0.086-0.178,0.178-0.262,0.272c-0.087,0.097-0.171,0.195-0.249,0.301
	c-0.083,0.113-0.153,0.233-0.225,0.355c-0.041,0.07-0.093,0.131-0.13,0.205l-15,30c-0.019,0.037-0.025,0.076-0.043,0.113
	c-0.06,0.129-0.105,0.263-0.151,0.398c-0.041,0.121-0.083,0.24-0.112,0.362c-0.027,0.118-0.043,0.24-0.06,0.362
	c-0.021,0.146-0.04,0.291-0.044,0.436C51.011,44.923,51,44.96,51,45v36H35c-2.209,0-4,1.791-4,4l-0.001,20
	c0,0.3,0.039,0.59,0.102,0.87c0.018,0.079,0.049,0.153,0.071,0.231c0.059,0.201,0.125,0.397,0.212,0.584
	c0.016,0.033,0.021,0.069,0.037,0.104l15.001,30C47.1,138.145,48.485,139,50,139h10h10h35h20C127.209,139,129,137.209,129,135z
	 M72.473,19h36.978l-7.333,22H61.473L72.473,19z M119.45,41h-8.9L115,27.65L119.45,41z M109,49h12v82h-12V49z M59,49h42v82H76.473
	l12.105-24.211c0.018-0.033,0.021-0.068,0.037-0.104c0.088-0.187,0.152-0.384,0.212-0.584c0.022-0.078,0.054-0.152,0.071-0.23
	C88.961,105.59,89,105.3,89,105V85c0-2.209-1.791-4-4-4H59V49z M81,89v12H38.999L39,89H81z M60,131h-7.528l-11.001-22h37.057
	l-10.999,22H60z M80,30c0-1.32,0.529-2.61,1.46-3.54C82.398,25.53,83.68,25,85,25c1.311,0,2.6,0.53,3.529,1.46
	C89.471,27.4,90,28.68,90,30s-0.529,2.6-1.471,3.54C87.609,34.47,86.318,35,85,35c-1.32,0-2.609-0.53-3.54-1.46
	C80.529,32.6,80,31.32,80,30z"/>
</svg>