<?xml version="1.0" encoding="UTF-8"?>
<!-- Uploaded to: SVG Repo, www.svgrepo.com, Generator: SVG Repo Mixer Tools -->
<svg width="800px" height="800px" viewBox="0 0 24 24" version="1.1" xmlns="http://www.w3.org/2000/svg" xmlns:xlink="http://www.w3.org/1999/xlink">
    <title>Pork</title>
    <g id="Pork" stroke="none" stroke-width="1" fill="none" fill-rule="evenodd" stroke-linecap="round">
        <path d="M20.3284271,10 C21.1568542,10 21.8284271,10.6715729 21.8284271,11.5 C21.8284271,12.1528467 21.411359,12.7082819 20.8291301,12.9143985 L20.8291301,13.0856015 C21.411359,13.2917181 21.8284271,13.8471533 21.8284271,14.5 C21.8284271,15.3284271 21.1568542,16 20.3284271,16 C19.5,16 18.8284271,15.3284271 18.8284271,14.5 C18.8284271,14.3244196 18.8585944,14.1558851 18.9140286,13.999297 L16.3312872,13.9998085 C16.3858259,13.6746604 16.4142136,13.3406453 16.4142136,13 C16.4142136,12.659006 16.3857678,12.3246559 16.3311197,11.9991931 L18.9136766,11.9997075 C18.8584668,11.8434007 18.8284271,11.6752084 18.8284271,11.5 C18.8284271,10.6715729 19.5,10 20.3284271,10 Z M4.02,18.999 L4,19 C2.34314575,19 1,16.3137085 1,13 C1,9.6862915 2.34314575,7 4,7 L4,7 L10.4142136,7 C13.7279221,7 16.4142136,9.6862915 16.4142136,13 C16.4142136,16.3137085 13.7279221,19 10.4142136,19 L10.4142136,19 L4.02,18.999 Z M4,19 C5.65685425,19 7,16.3137085 7,13 C7,9.6862915 5.65685425,7 4,7 C2.34314575,7 1,9.6862915 1,13 C1,16.3137085 2.34314575,19 4,19 Z M4,15 C4.55228475,15 5,14.1045695 5,13 C5,11.8954305 4.55228475,11 4,11 C3.44771525,11 3,11.8954305 3,13 C3,14.1045695 3.44771525,15 4,15 Z" id="Combined-Shape" stroke="#000000" transform="translate(11.414214, 13.000000) rotate(-225.000000) translate(-11.414214, -13.000000) ">
</path>
    </g>
</svg>