<?xml version="1.0" encoding="UTF-8"?>
<!-- Uploaded to: SVG Repo, www.svgrepo.com, Generator: SVG Repo Mixer Tools -->
<svg width="800px" height="800px" viewBox="0 0 24 24" version="1.1" xmlns="http://www.w3.org/2000/svg" xmlns:xlink="http://www.w3.org/1999/xlink">
    <title>Potato</title>
    <g id="Potato" stroke="none" stroke-width="1" fill="none" fill-rule="evenodd" stroke-linecap="round">
        <path d="M10,15.5 C10,16.6850638 10.3562889,17.7631359 10.9386564,18.5668033 C10.0876646,19.0463622 9.27454852,19.2857143 8.5,19.2857143 C6.01471863,19.2857143 3,16.6953618 3,13.5 C3,10.4014674 5.01885345,8.50398991 7.2867127,7.7788353 L7.5,7.71428571 L7.72827125,7.64801654 L10.4947454,6.79964793 L13.623743,5.77678987 C15.1131577,5.28990555 16.7464195,5.55981461 18,6.5 C19.1639117,7.37293377 19.7519402,8.80851815 19.5465034,10.2372625 L19.5097097,10.4514517 L19.5,10.5 C19.3931668,11.0341661 19.2124011,11.5448987 18.9667601,12.0193455 C18.6718355,11.8800772 18.359606,11.7742636 18.0353235,11.7050184 L17.7899337,11.6599898 L14.3324271,11.1280494 C14.0656271,11.0443651 13.7868432,11 13.5,11 L13.5,11 C11.5670034,11 10,13.0147186 10,15.5 Z M4.98278836,15.0509035 C4.97127618,14.90152 4.95408219,14.7542846 4.93148814,14.6095594 C4.88648649,14.3213035 4.8200625,14.0430062 4.73444231,13.7775296 M18,7.5 C18,7.15338565 17.9695202,6.81592421 17.9118187,6.49180463 M16,11.5 C16,11.1951568 15.9764239,10.8973934 15.9314881,10.6095594 C15.9088884,10.4647981 15.880886,10.3225484 15.8477627,10.1831727 M7.98278836,17.0509035 C7.97127618,16.90152 7.95408219,16.7542846 7.93148814,16.6095594 M6.93148814,11.6095594 C6.88648649,11.3213035 6.8200625,11.0430062 6.73444231,10.7775296 M14,7.5 C14,7.04019688 13.9463632,6.5965006 13.8466953,6.17868984 M11,9.5 C11,9.1582659 10.9703725,8.82542878 10.9142398,8.50550313 M9.90754368,12.4680881 C9.86410732,12.2300659 9.80597415,11.9993234 9.73444231,11.7775296" id="Combined-Shape" stroke="#000000">
</path>
        <path d="M13.5,20 C15.4329966,20 17,17.9852814 17,15.5 C17,13.0147186 15.4329966,11 13.5,11 C11.5670034,11 10,13.0147186 10,15.5 C10,17.9852814 11.5670034,20 13.5,20 Z M19,13.5 C19,13.1951568 18.9764239,12.8973934 18.9314881,12.6095594 C18.9088884,12.4647981 18.880886,12.3225484 18.8477627,12.1831727 M18.6861844,16.5698768 C18.7205304,16.8446448 18.7267416,17.115896 18.7042314,17.3789383 M13.5,11 L17.7899337,11.6599898 C19.1761237,11.8732498 20.3727835,12.745567 21,14 L21.0513167,14.1026334 C21.6178612,15.2357223 21.3957854,16.6042146 20.5,17.5 C19.5232725,18.4767275 18.2719175,19.1323786 16.9128967,19.3794733 L13.5,20" id="Combined-Shape" stroke="#000000">
</path>
    </g>
</svg>