<svg fill="#1e293b" height="200px" width="200px" version="1.1" id="Layer_1" xmlns="http://www.w3.org/2000/svg" xmlns:xlink="http://www.w3.org/1999/xlink" viewBox="0 0 392.533 392.533" xml:space="preserve" stroke="#1e293b" stroke-width="5.887995"><g id="SVGRepo_bgCarrier" stroke-width="0"></g><g id="SVGRepo_tracerCarrier" stroke-linecap="round" stroke-linejoin="round"></g><g id="SVGRepo_iconCarrier"> <g> <g> <path d="M391.048,216.566L335,98.974c3.62-2.069,7.111-4.59,10.279-7.434c4.461-4.073,4.719-10.99,0.711-15.386 c-4.073-4.396-10.99-4.784-15.451-0.711c-8.857,8.145-21.269,11.313-32.905,8.339l-58.893-14.61 c-3.232-16.226-15.58-29.156-31.418-33.293V10.925C207.258,4.913,202.41,0,196.333,0c-6.012,0-10.925,4.849-10.925,10.925v24.954 c-15.838,4.202-28.186,17.067-31.418,33.293L95.097,83.846c-11.766,2.909-24.048-0.259-32.905-8.339 c-4.461-4.073-11.378-3.814-15.451,0.711c-4.073,4.396-3.814,11.378,0.711,15.386c3.168,2.909,6.659,5.43,10.343,7.499 L1.036,217.859c-0.646,1.099-1.034,5.301-1.034,5.43c0.84,39.046,32.97,70.659,72.081,70.659c38.529,0,70.4-30.836,71.952-69.172 c0.129-0.711-0.388-6.465-1.552-8.21L89.99,106.473c3.491-0.259,6.853-0.646,10.343-1.487l55.079-13.705 c4.655,13.77,15.903,24.372,30.061,28.057v207.968c-29.22,3.814-54.756,22.497-66.909,49.907 c-1.487,3.426-1.164,15.321,9.955,15.321h135.758c11.313,0,11.442-11.895,9.956-15.321c-12.154-27.41-37.689-46.158-66.909-49.907 V119.467c14.158-3.685,25.406-14.287,30.061-28.057l55.079,13.705c3.426,0.84,6.852,1.293,10.343,1.487l-53.269,111.321 c-0.646,1.099-1.034,5.301-1.034,5.43c0.776,39.046,32.905,70.659,72.016,70.659c38.529,0,70.4-30.836,71.952-69.172 C392.729,224.065,392.147,218.376,391.048,216.566z M72.083,272.226c-23.661,0-43.636-16.549-48.937-38.723h97.81 C115.719,255.612,95.743,272.226,72.083,272.226z M115.978,211.717h-87.79l43.895-92.057L115.978,211.717z M244.624,370.812 h-96.582c11.83-13.964,29.414-22.432,48.291-22.432S232.729,356.848,244.624,370.812z M196.333,99.038 c-11.83,0-21.398-9.568-21.398-21.398s9.568-21.398,21.398-21.398s21.398,9.568,21.398,21.398S208.164,99.038,196.333,99.038z M320.648,119.596l43.895,92.057h-87.79L320.648,119.596z M320.648,272.226c-23.661,0-43.636-16.549-48.937-38.723h97.875 C364.22,255.612,344.309,272.226,320.648,272.226z"></path> </g> </g> </g></svg>