<svg viewBox="0 -12.45 51.445 51.445" fill="none" xmlns="http://www.w3.org/2000/svg"><g id="SVGRepo_bgCarrier" stroke-width="0"></g><g id="SVGRepo_tracerCarrier" stroke-linecap="round" stroke-linejoin="round"></g><g id="SVGRepo_iconCarrier"> <g id="Group_13" data-name="Group 13" transform="translate(-170.5 -213.091)"> <path id="Path_30" data-name="Path 30" d="M220.945,230.206c0,8.711-11.069,8.425-24.723,8.425s-24.722.286-24.722-8.425,11.069-15.773,24.722-15.773S220.945,221.495,220.945,230.206Z" fill="none" stroke="#000000" stroke-linecap="round" stroke-linejoin="round" stroke-width="2.0578000000000003"></path> <path id="Path_31" data-name="Path 31" d="M198.542,214.5a19.342,19.342,0,0,0-4.467,6.867.848.848,0,0,1-1.644-.188,11.581,11.581,0,0,1,.709-6.044" fill="none" stroke="#000000" stroke-linecap="round" stroke-linejoin="round" stroke-width="2.0578000000000003"></path> <path id="Path_32" data-name="Path 32" d="M209.495,216.9a19.445,19.445,0,0,0-3.4,5.109.85.85,0,0,1-1.617-.264,13.68,13.68,0,0,1,.682-6.246" fill="none" stroke="#000000" stroke-linecap="round" stroke-linejoin="round" stroke-width="2.0578000000000003"></path> <path id="Path_33" data-name="Path 33" d="M186.495,215.7a32.122,32.122,0,0,0-3.459,6.3.85.85,0,0,1-1.637-.17,15.6,15.6,0,0,1-.017-4.238" fill="none" stroke="#000000" stroke-linecap="round" stroke-linejoin="round" stroke-width="2.0578000000000003"></path> </g> </g></svg>