<svg version="1.1" id="Icons" xmlns="http://www.w3.org/2000/svg" xmlns:xlink="http://www.w3.org/1999/xlink" viewBox="0 0 32 32" xml:space="preserve" fill="#000000"><g id="SVGRepo_bgCarrier" stroke-width="0"></g><g id="SVGRepo_tracerCarrier" stroke-linecap="round" stroke-linejoin="round"></g><g id="SVGRepo_iconCarrier"> <style type="text/css"> .st0{fill:none;stroke:#2b2b2b;stroke-width:2;stroke-linecap:round;stroke-linejoin:round;stroke-miterlimit:10;} </style> <path class="st0" d="M20.3,20.7c1.1-1,1.8-2.1,2.1-3.1l3.5-2c0.6,0.3,1.3,0.3,1.9,0c0.9-0.5,1.3-1.7,0.7-2.6 c-0.2-0.3-0.4-0.5-0.7-0.7c0-0.3-0.1-0.7-0.2-1c-0.5-0.9-1.7-1.2-2.6-0.7c-0.6,0.4-1,1-1,1.7l-3.5,2c-1.5-0.4-3.7-0.1-5.7,1.1 c-1.5,0.9-2.7,2-3.3,3.2"></path> <path class="st0" d="M22.7,17.4c0.2,0.6,0.3,1.3,0.3,1.9c0,4.6-4.5,5.7-10,5.7S3,23.9,3,19.3S7.5,11,13,11c3.2,0,6,1.2,7.8,3.1"></path> <path class="st0" d="M23.7,12.4c0.2-0.5,0.1-1-0.2-1.5c-0.2-0.3-0.4-0.5-0.7-0.7c0-0.3-0.1-0.7-0.2-1c-0.5-0.9-1.7-1.2-2.6-0.7 c-0.6,0.4-1,1-1,1.7l-2.3,1.3"></path> </g></svg>